<svg xmlns="http://www.w3.org/2000/svg" version="1.1" xmlns:xlink="http://www.w3.org/1999/xlink" xmlns:svgjs="http://svgjs.dev/svgjs" viewBox="0 0 800 800" opacity="0.87" width="800" height="800"><g stroke-width="3.5" stroke="rgba(169, 184, 254, 0.79)" fill="none"><rect width="80" height="72.72727272727273" x="0" y="0"></rect><rect width="80" height="72.72727272727273" x="80" y="0"></rect><rect width="80" height="72.72727272727273" x="160" y="0"></rect><rect width="80" height="72.72727272727273" x="240" y="0"></rect><rect width="80" height="72.72727272727273" x="320" y="0"></rect><rect width="80" height="72.72727272727273" x="400" y="0"></rect><rect width="80" height="72.72727272727273" x="480" y="0"></rect><rect width="80" height="72.72727272727273" x="560" y="0"></rect><rect width="80" height="72.72727272727273" x="640" y="0"></rect><rect width="80" height="72.72727272727273" x="720" y="0"></rect><rect width="80" height="72.72727272727273" x="800" y="0"></rect><rect width="80" height="72.72727272727273" x="0" y="72.72727272727273"></rect><rect width="80" height="72.72727272727273" x="80" y="72.72727272727273"></rect><rect width="80" height="72.72727272727273" x="160" y="72.72727272727273"></rect><rect width="80" height="72.72727272727273" x="240" y="72.72727272727273"></rect><rect width="80" height="72.72727272727273" x="320" y="72.72727272727273"></rect><rect width="80" height="72.72727272727273" x="400" y="72.72727272727273"></rect><rect width="80" height="72.72727272727273" x="480" y="72.72727272727273"></rect><rect width="80" height="72.72727272727273" x="560" y="72.72727272727273"></rect><rect width="80" height="72.72727272727273" x="640" y="72.72727272727273"></rect><rect width="80" height="72.72727272727273" x="720" y="72.72727272727273"></rect><rect width="80" height="72.72727272727273" x="800" y="72.72727272727273"></rect><rect width="80" height="72.72727272727273" x="0" y="145.45454545454547"></rect><rect width="80" height="72.72727272727273" x="80" y="145.45454545454547"></rect><rect width="80" height="72.72727272727273" x="160" y="145.45454545454547"></rect><rect width="80" height="72.72727272727273" x="240" y="145.45454545454547"></rect><rect width="80" height="72.72727272727273" x="320" y="145.45454545454547"></rect><rect width="80" height="72.72727272727273" x="400" y="145.45454545454547"></rect><rect width="80" height="72.72727272727273" x="480" y="145.45454545454547"></rect><rect width="80" height="72.72727272727273" x="560" y="145.45454545454547"></rect><rect width="80" height="72.72727272727273" x="640" y="145.45454545454547"></rect><rect width="80" height="72.72727272727273" x="720" y="145.45454545454547"></rect><rect width="80" height="72.72727272727273" x="800" y="145.45454545454547"></rect><rect width="80" height="72.72727272727273" x="0" y="218.1818181818182"></rect><rect width="80" height="72.72727272727273" x="80" y="218.1818181818182"></rect><rect width="80" height="72.72727272727273" x="160" y="218.1818181818182"></rect><rect width="80" height="72.72727272727273" x="240" y="218.1818181818182"></rect><rect width="80" height="72.72727272727273" x="320" y="218.1818181818182"></rect><rect width="80" height="72.72727272727273" x="400" y="218.1818181818182"></rect><rect width="80" height="72.72727272727273" x="480" y="218.1818181818182"></rect><rect width="80" height="72.72727272727273" x="560" y="218.1818181818182"></rect><rect width="80" height="72.72727272727273" x="640" y="218.1818181818182"></rect><rect width="80" height="72.72727272727273" x="720" y="218.1818181818182"></rect><rect width="80" height="72.72727272727273" x="800" y="218.1818181818182"></rect><rect width="80" height="72.72727272727273" x="0" y="290.90909090909093"></rect><rect width="80" height="72.72727272727273" x="80" y="290.90909090909093"></rect><rect width="80" height="72.72727272727273" x="160" y="290.90909090909093"></rect><rect width="80" height="72.72727272727273" x="240" y="290.90909090909093"></rect><rect width="80" height="72.72727272727273" x="320" y="290.90909090909093"></rect><rect width="80" height="72.72727272727273" x="400" y="290.90909090909093"></rect><rect width="80" height="72.72727272727273" x="480" y="290.90909090909093"></rect><rect width="80" height="72.72727272727273" x="560" y="290.90909090909093"></rect><rect width="80" height="72.72727272727273" x="640" y="290.90909090909093"></rect><rect width="80" height="72.72727272727273" x="720" y="290.90909090909093"></rect><rect width="80" height="72.72727272727273" x="800" y="290.90909090909093"></rect><rect width="80" height="72.72727272727273" x="0" y="363.6363636363637"></rect><rect width="80" height="72.72727272727273" x="80" y="363.6363636363637"></rect><rect width="80" height="72.72727272727273" x="160" y="363.6363636363637"></rect><rect width="80" height="72.72727272727273" x="240" y="363.6363636363637"></rect><rect width="80" height="72.72727272727273" x="320" y="363.6363636363637"></rect><rect width="80" height="72.72727272727273" x="400" y="363.6363636363637"></rect><rect width="80" height="72.72727272727273" x="480" y="363.6363636363637"></rect><rect width="80" height="72.72727272727273" x="560" y="363.6363636363637"></rect><rect width="80" height="72.72727272727273" x="640" y="363.6363636363637"></rect><rect width="80" height="72.72727272727273" x="720" y="363.6363636363637"></rect><rect width="80" height="72.72727272727273" x="800" y="363.6363636363637"></rect><rect width="80" height="72.72727272727273" x="0" y="436.36363636363643"></rect><rect width="80" height="72.72727272727273" x="80" y="436.36363636363643"></rect><rect width="80" height="72.72727272727273" x="160" y="436.36363636363643"></rect><rect width="80" height="72.72727272727273" x="240" y="436.36363636363643"></rect><rect width="80" height="72.72727272727273" x="320" y="436.36363636363643"></rect><rect width="80" height="72.72727272727273" x="400" y="436.36363636363643"></rect><rect width="80" height="72.72727272727273" x="480" y="436.36363636363643"></rect><rect width="80" height="72.72727272727273" x="560" y="436.36363636363643"></rect><rect width="80" height="72.72727272727273" x="640" y="436.36363636363643"></rect><rect width="80" height="72.72727272727273" x="720" y="436.36363636363643"></rect><rect width="80" height="72.72727272727273" x="800" y="436.36363636363643"></rect><rect width="80" height="72.72727272727273" x="0" y="509.0909090909092"></rect><rect width="80" height="72.72727272727273" x="80" y="509.0909090909092"></rect><rect width="80" height="72.72727272727273" x="160" y="509.0909090909092"></rect><rect width="80" height="72.72727272727273" x="240" y="509.0909090909092"></rect><rect width="80" height="72.72727272727273" x="320" y="509.0909090909092"></rect><rect width="80" height="72.72727272727273" x="400" y="509.0909090909092"></rect><rect width="80" height="72.72727272727273" x="480" y="509.0909090909092"></rect><rect width="80" height="72.72727272727273" x="560" y="509.0909090909092"></rect><rect width="80" height="72.72727272727273" x="640" y="509.0909090909092"></rect><rect width="80" height="72.72727272727273" x="720" y="509.0909090909092"></rect><rect width="80" height="72.72727272727273" x="800" y="509.0909090909092"></rect><rect width="80" height="72.72727272727273" x="0" y="581.8181818181819"></rect><rect width="80" height="72.72727272727273" x="80" y="581.8181818181819"></rect><rect width="80" height="72.72727272727273" x="160" y="581.8181818181819"></rect><rect width="80" height="72.72727272727273" x="240" y="581.8181818181819"></rect><rect width="80" height="72.72727272727273" x="320" y="581.8181818181819"></rect><rect width="80" height="72.72727272727273" x="400" y="581.8181818181819"></rect><rect width="80" height="72.72727272727273" x="480" y="581.8181818181819"></rect><rect width="80" height="72.72727272727273" x="560" y="581.8181818181819"></rect><rect width="80" height="72.72727272727273" x="640" y="581.8181818181819"></rect><rect width="80" height="72.72727272727273" x="720" y="581.8181818181819"></rect><rect width="80" height="72.72727272727273" x="800" y="581.8181818181819"></rect><rect width="80" height="72.72727272727273" x="0" y="654.5454545454546"></rect><rect width="80" height="72.72727272727273" x="80" y="654.5454545454546"></rect><rect width="80" height="72.72727272727273" x="160" y="654.5454545454546"></rect><rect width="80" height="72.72727272727273" x="240" y="654.5454545454546"></rect><rect width="80" height="72.72727272727273" x="320" y="654.5454545454546"></rect><rect width="80" height="72.72727272727273" x="400" y="654.5454545454546"></rect><rect width="80" height="72.72727272727273" x="480" y="654.5454545454546"></rect><rect width="80" height="72.72727272727273" x="560" y="654.5454545454546"></rect><rect width="80" height="72.72727272727273" x="640" y="654.5454545454546"></rect><rect width="80" height="72.72727272727273" x="720" y="654.5454545454546"></rect><rect width="80" height="72.72727272727273" x="800" y="654.5454545454546"></rect><rect width="80" height="72.72727272727273" x="0" y="727.2727272727274"></rect><rect width="80" height="72.72727272727273" x="80" y="727.2727272727274"></rect><rect width="80" height="72.72727272727273" x="160" y="727.2727272727274"></rect><rect width="80" height="72.72727272727273" x="240" y="727.2727272727274"></rect><rect width="80" height="72.72727272727273" x="320" y="727.2727272727274"></rect><rect width="80" height="72.72727272727273" x="400" y="727.2727272727274"></rect><rect width="80" height="72.72727272727273" x="480" y="727.2727272727274"></rect><rect width="80" height="72.72727272727273" x="560" y="727.2727272727274"></rect><rect width="80" height="72.72727272727273" x="640" y="727.2727272727274"></rect><rect width="80" height="72.72727272727273" x="720" y="727.2727272727274"></rect><rect width="80" height="72.72727272727273" x="800" y="727.2727272727274"></rect><rect width="80" height="72.72727272727273" x="0" y="800.0000000000001"></rect><rect width="80" height="72.72727272727273" x="80" y="800.0000000000001"></rect><rect width="80" height="72.72727272727273" x="160" y="800.0000000000001"></rect><rect width="80" height="72.72727272727273" x="240" y="800.0000000000001"></rect><rect width="80" height="72.72727272727273" x="320" y="800.0000000000001"></rect><rect width="80" height="72.72727272727273" x="400" y="800.0000000000001"></rect><rect width="80" height="72.72727272727273" x="480" y="800.0000000000001"></rect><rect width="80" height="72.72727272727273" x="560" y="800.0000000000001"></rect><rect width="80" height="72.72727272727273" x="640" y="800.0000000000001"></rect><rect width="80" height="72.72727272727273" x="720" y="800.0000000000001"></rect><rect width="80" height="72.72727272727273" x="800" y="800.0000000000001"></rect></g></svg>